HIERARCHY
ROOT Hips
{
	OFFSET 0.00 0.00 0.00
	CHANNELS 6 Xposition Yposition Zposition Xrotation Yrotation Zrotation
	JOINT LeftUpLeg
	{
		OFFSET 3.64953 0.00000 0.00000
		CHANNELS 3 Xrotation Yrotation Zrotation
		JOINT LeftLeg
		{
			OFFSET 0.00000 -15.70580 0.00000
			CHANNELS 3 Xrotation Yrotation Zrotation
			JOINT LeftFoot
			{
				OFFSET 0.00000 -15.41867 0.00000
				CHANNELS 3 Xrotation Yrotation Zrotation
				JOINT LeftToeBase
				{
					OFFSET 0.00000 -1.53543 5.73033
					CHANNELS 3 Xrotation Yrotation Zrotation
					End Site
					{
						OFFSET 0.00000 0.00000 2.95275
					}
				}
			}
		}
	}
	JOINT RightUpLeg
	{
		OFFSET -3.64953 0.00000 0.00000
		CHANNELS 3 Xrotation Yrotation Zrotation
		JOINT RightLeg
		{
			OFFSET 0.00000 -15.70580 0.00000
			CHANNELS 3 Xrotation Yrotation Zrotation
			JOINT RightFoot
			{
				OFFSET 0.00000 -15.41867 0.00000
				CHANNELS 3 Xrotation Yrotation Zrotation
				JOINT RightToeBase
				{
					OFFSET 0.00000 -1.53543 5.73033
					CHANNELS 3 Xrotation Yrotation Zrotation
					End Site
					{
						OFFSET 0.00000 0.00000 2.95275
					}
				}
			}
		}
	}
	JOINT Spine
	{
		OFFSET 0.00000 0.03937 0.00000
		CHANNELS 3 Xrotation Yrotation Zrotation
		JOINT Spine1
		{
			OFFSET 0.00000 10.24829 0.00000
			CHANNELS 3 Xrotation Yrotation Zrotation
			JOINT Neck
			{
				OFFSET 0.00000 7.82687 0.00000
				CHANNELS 3 Xrotation Yrotation Zrotation
				JOINT Head
				{
					OFFSET 0.00000 6.90715 0.00000
					CHANNELS 3 Xrotation Yrotation Zrotation
					End Site
					{
						OFFSET 0.00000 4.52755 0.00000
					}
				}
			}
			JOINT LeftShoulder
			{
				OFFSET 0.00000 7.82687 0.00000
				CHANNELS 3 Xrotation Yrotation Zrotation
				JOINT LeftArm
				{
					OFFSET 6.71018 -0.00002 0.00000
					CHANNELS 3 Xrotation Yrotation Zrotation
					JOINT LeftForeArm
					{
						OFFSET 10.94419 -0.00004 0.00000
						CHANNELS 3 Xrotation Yrotation Zrotation
						JOINT LeftHand
						{
							OFFSET 8.52010 -0.00003 0.00000
							CHANNELS 3 Xrotation Yrotation Zrotation
							JOINT LeftHandThumb
							{
								OFFSET 0.00000 0.00000 0.00000
								CHANNELS 3 Xrotation Yrotation Zrotation
								End Site
								{
									OFFSET 0.00000 0.00000 3.93700
								}
							}
							JOINT L_Wrist_End
							{
								OFFSET 3.93700 -0.00001 0.00000
								CHANNELS 3 Xrotation Yrotation Zrotation
							}
						}
					}
				}
			}
			JOINT RightShoulder
			{
				OFFSET 0.00000 7.82687 0.00000
				CHANNELS 3 Xrotation Yrotation Zrotation
				JOINT RightArm
				{
					OFFSET -6.71018 -0.00002 0.00000
					CHANNELS 3 Xrotation Yrotation Zrotation
					JOINT RightForeArm
					{
						OFFSET -10.94419 -0.00004 0.00000
						CHANNELS 3 Xrotation Yrotation Zrotation
						JOINT RightHand
						{
							OFFSET -8.52010 -0.00003 0.00000
							CHANNELS 3 Xrotation Yrotation Zrotation
							JOINT RightHandThumb
							{
								OFFSET 0.00000 0.00000 0.00000
								CHANNELS 3 Xrotation Yrotation Zrotation
								End Site
								{
									OFFSET 0.00000 0.00000 3.93700
								}
							}
							JOINT R_Wrist_End
							{
								OFFSET -5.39369 -0.00002 0.00000
								CHANNELS 3 Xrotation Yrotation Zrotation
							}
						}
					}
				}
			}
		}
	}
}
MOTION
Frames: 6
Frame Time: 0.008333
 -20.1071 33.1099 -38.7591 9.8501 -47.2053 1.2360 -0.6606 -2.3679 -3.7781 27.5540 0.0000 -0.0000 -7.5536 -10.9976 5.9850 -13.3493 0.0000 0.0000 -23.2548 4.5503 -2.0411 48.1864 0.0000 0.0000 -23.5891 -6.0211 -6.3197 -0.4176 -0.0000 0.0000 -2.6619 1.4839 0.3203 10.5135 -0.4803 0.6445 -0.8248 4.5333 -7.3800 -1.7736 8.5703 1.5841 18.9456 13.1612 -3.4420 -21.0682 -44.6915 -77.1971 -0.0003 -54.2231 -0.0001 -12.4356 -3.0750 -12.5981 -0.0000 -0.0000 0.0000 -0.0000 -0.0000 0.0000 16.6217 -19.2018 3.5082 3.7318 34.3259 71.1005 -0.0001 17.2418 0.0000 -22.0632 -3.6877 6.6121 0.0000 -0.0000 0.0000 0.0000 -0.0000 0.0000
 -20.4921 33.2778 -38.4754 9.9398 -46.7399 1.2465 -0.0465 -1.7761 -3.3911 27.3131 -0.0000 -0.0000 -5.5509 -11.5999 5.6784 -14.3103 0.0000 -0.0000 -23.1899 4.7058 -1.9576 44.6961 -0.0000 -0.0000 -23.7899 -5.8681 -6.7082 -0.9646 -0.0000 0.0000 -2.7951 1.4047 0.3899 10.5944 -0.5650 0.6468 -0.9547 4.7723 -7.4108 -1.4979 8.3122 1.8326 18.6432 13.3636 -3.1946 -21.2038 -45.5268 -77.5326 -0.0003 -56.5415 -0.0002 -12.0809 -3.7255 -12.9249 -0.0000 -0.0000 0.0000 -0.0000 -0.0000 0.0000 16.5486 -19.2501 3.3877 4.3900 33.7904 70.9811 -0.0001 17.0673 0.0000 -21.9772 -3.6637 7.0463 -0.0000 -0.0000 -0.0000 -0.0000 -0.0000 -0.0000
 -20.8654 33.4220 -38.1890 10.0898 -46.2579 1.3442 0.3770 -1.3311 -3.1025 27.3096 -0.0000 0.0000 -3.7768 -11.9820 5.2752 -15.0969 -0.0000 0.0000 -23.1371 4.7319 -1.9806 41.2321 0.0000 -0.0000 -24.0715 -5.6160 -6.8639 -1.1243 -0.0000 -0.0000 -2.9074 1.3432 0.4349 10.5304 -0.6285 0.6556 -0.9542 4.8569 -7.4251 -1.3242 8.1435 1.9730 18.5069 13.4657 -2.8984 -21.6338 -46.3289 -78.0690 -0.0003 -58.3597 -0.0002 -12.1571 -4.9974 -13.2581 -0.0000 -0.0000 0.0000 -0.0000 -0.0000 0.0000 16.7415 -19.3035 3.3283 4.8740 33.3683 70.7740 -0.0001 17.0268 0.0000 -22.1428 -3.9367 7.4427 0.0000 -0.0000 0.0000 0.0000 -0.0000 0.0000
 -21.2443 33.5427 -37.8983 10.2272 -45.8042 1.4643 0.8257 -0.9022 -2.8567 27.3218 0.0000 -0.0000 -2.2878 -12.4937 4.6368 -15.1198 0.0000 -0.0000 -23.0355 4.7036 -2.0188 37.9115 -0.0000 0.0000 -24.3958 -5.2921 -7.0903 -1.1008 -0.0000 -0.0000 -3.0639 1.3080 0.4398 10.5043 -0.6639 0.6572 -0.9386 4.8809 -7.3822 -1.1821 7.9656 2.0626 18.4281 13.5424 -2.5297 -22.2358 -47.1297 -78.7495 -0.0004 -59.8671 -0.0002 -12.6100 -6.2292 -13.3046 -0.0000 0.0000 -0.0000 -0.0000 0.0000 -0.0000 16.8637 -19.3354 3.2236 5.3760 33.0895 70.5723 -0.0001 16.9320 0.0000 -22.3284 -4.3443 7.8573 -0.0000 0.0000 -0.0000 -0.0000 0.0000 -0.0000
 -21.6277 33.6384 -37.6153 10.3483 -45.3014 1.5341 1.1384 -0.8614 -2.6010 27.6242 -0.0000 0.0000 -1.4830 -12.5565 2.5755 -12.7023 -0.0000 -0.0000 -22.8589 4.6096 -2.0044 34.6118 -0.0000 0.0000 -24.8444 -5.1810 -6.5415 -0.2947 0.0000 0.0000 -3.2539 1.2817 0.4610 10.6250 -0.6896 0.6634 -1.1179 5.0047 -7.3446 -0.9321 7.6460 2.1545 18.1818 13.5898 -2.2171 -22.7158 -47.8651 -79.2969 -0.0004 -61.2553 -0.0002 -13.2084 -7.3058 -13.5287 0.0000 -0.0000 -0.0000 0.0000 -0.0000 -0.0000 16.5354 -19.4913 3.0633 6.0820 32.7737 70.3939 -0.0001 16.7868 0.0000 -22.3881 -4.5000 8.3298 0.0000 0.0000 -0.0000 0.0000 0.0000 -0.0000
 -22.0315 33.7077 -37.3165 10.1800 -44.8786 1.3155 1.6117 -0.6487 -2.2703 28.1242 -0.0000 0.0000 -0.5961 -12.6115 1.0823 -12.2911 0.0000 0.0000 -22.3448 4.3847 -1.8931 31.3054 -0.0000 0.0000 -25.2401 -4.9735 -5.9848 -0.4651 0.0000 0.0000 -3.3874 1.2329 0.5319 10.8362 -0.7307 0.7119 -1.0911 5.1710 -7.3857 -0.9657 7.3611 2.3024 17.9644 13.7082 -1.9762 -23.2061 -48.4907 -79.8592 -0.0004 -62.4108 -0.0002 -14.0577 -8.2206 -13.9367 0.0000 0.0000 -0.0000 0.0000 0.0000 -0.0000 16.5974 -19.3947 2.9451 6.3909 32.4437 70.2443 -0.0001 16.6293 0.0000 -22.6082 -4.7086 8.7158 0.0000 -0.0000 0.0000 0.0000 -0.0000 0.0000
